<svg width="26" height="18" viewBox="0 0 26 18" fill="none" xmlns="http://www.w3.org/2000/svg">
<path d="M1.01827 17.8925L8.74584 8.36438C9.43601 8.9705 10.1149 9.56449 10.7824 10.1706C12.1288 11.3586 13.6675 11.3707 15.0252 10.1706C15.6927 9.57661 16.3716 8.98262 17.0731 8.36438L24.7667 17.8561C24.5744 17.9046 24.4386 17.9531 24.2802 17.9774C24.1444 18.0016 24.0086 17.9895 23.8729 17.9895C16.5639 17.9895 9.24367 17.9895 1.93472 17.9895C1.65187 17.9895 1.36901 17.9289 1.00696 17.8925H1.01827Z" fill="white"/>
<path d="M24.8119 0.242446C23.7823 1.15162 22.7527 2.07292 21.7231 2.98209C19.2906 5.13986 16.858 7.28551 14.4255 9.44328C13.4525 10.304 12.3663 10.304 11.382 9.44328C7.97641 6.4127 4.57085 3.40637 1.16529 0.387914C1.10872 0.339425 1.06346 0.290935 0.950317 0.193957C1.1766 0.121223 1.34631 0.0484893 1.52734 0.0121223C1.67442 0 1.83282 0 1.97991 0C9.27754 0 16.5752 0 23.8728 0C24.1896 0 24.4951 0.0727339 24.8119 0.109101V0.230324V0.242446Z" fill="white"/>
<path d="M8.05568 7.73404L0.362053 17.2379C0.0905133 16.8621 0 16.4742 0 16.0378C0 14.2074 0 12.3769 0 10.5464C0 7.70979 0 4.87317 0 2.03655C0 1.63652 0.0565708 1.2486 0.305482 0.87281L8.05568 7.73404Z" fill="white"/>
<path d="M25.4568 17.2379L17.7632 7.73404L25.5813 0.836449C25.6718 1.16375 25.751 1.44256 25.8189 1.72138C25.8415 1.8426 25.8189 1.97595 25.8189 2.09717C25.8189 6.71577 25.8189 11.3344 25.8189 15.9409C25.8189 16.4015 25.751 16.8258 25.4568 17.2379Z" fill="white"/>
</svg>
