<svg width="27" height="29" viewBox="0 0 27 29" fill="none" xmlns="http://www.w3.org/2000/svg">
<path d="M14.7537 28.136H9.32288V9.39488H14.5274V11.8921C14.9008 11.4193 15.2176 10.9465 15.6135 10.5586C16.5753 9.58884 17.7406 9.09182 19.0417 8.95848C20.1618 8.84938 21.2819 8.93423 22.3681 9.2979C24.1784 9.90402 25.2419 11.2617 25.7737 13.1649C26.1244 14.4256 26.2489 15.7227 26.2602 17.0319C26.2828 20.6565 26.2715 24.2932 26.2828 27.9299C26.2828 27.9784 26.2828 28.0148 26.2715 28.0875H20.8294C20.8294 27.9541 20.8294 27.8208 20.8294 27.6875C20.8294 24.5841 20.8294 21.4808 20.8181 18.3775C20.8181 17.7229 20.7615 17.0683 20.6483 16.4379C20.3202 14.5105 19.1549 13.8438 17.4578 14.062C15.9417 14.2681 15.1044 15.2257 14.8781 16.9835C14.7989 17.6259 14.7537 18.2805 14.7537 18.9351C14.7424 21.8687 14.7537 24.8023 14.7537 27.7359C14.7537 27.8693 14.7537 28.0026 14.7537 28.1602V28.136Z" fill="white"/>
<path d="M5.86068 28.136H0.452515V9.38275H5.86068V28.1481V28.136Z" fill="white"/>
<path d="M6.30199 3.37008C6.30199 5.23691 4.89903 6.78857 3.17928 6.78857C1.44821 6.80069 0 5.24903 0 3.3822C0 1.53961 1.41427 0.0121951 3.13402 7.2807e-05C4.8764 -0.0120495 6.29067 1.49112 6.30199 3.37008Z" fill="white"/>
</svg>
