<?xml version="1.0" encoding="UTF-8"?>
<svg id="Capa_2"
    xmlns="http://www.w3.org/2000/svg" viewBox="0 0 174.53 12.97">
    <defs>
        <style>.cls-1{fill:#fff;}</style>
    </defs>
    <g id="Capa_1-2">
        <g>
            <path class="cls-1" d="M48.96,.45V11.67c0,.1-.01,.2-.03,.29-.06,.24-.18,.43-.37,.57-.19,.15-.41,.22-.65,.22-.19,0-.37-.05-.55-.15l.03,.02L30.6,3.09V12.62h-2.11V1.3c0-.4,.17-.71,.52-.91,.35-.21,.7-.21,1.06-.01l16.78,9.51V.45h2.11Z"/>
            <path class="cls-1" d="M85.87,.37h15.69c1.02,0,1.93,.32,2.72,.95,.97,.77,1.46,1.85,1.46,3.24,0,1.02-.31,1.93-.95,2.72-.48,.61-1.09,1.03-1.81,1.25l1.99,2.11,.73,.76-1.53,1.45-.73-.76-2.53-2.67-.64-.68h-12.3v3.9h-2.11V6.63h15.69c.81,0,1.39-.29,1.74-.86,.12-.2,.21-.42,.27-.68,.02-.1,.04-.2,.04-.3,.01-.08,.02-.16,.02-.23,0-.81-.29-1.39-.86-1.74-.2-.12-.43-.21-.68-.26-.1-.02-.2-.04-.3-.04-.08,0-.16-.02-.23-.02h-15.69V.37Z"/>
            <path class="cls-1" d="M133.73,5.17v4.15c0,.92-.32,1.7-.97,2.34-.64,.65-1.43,.97-2.34,.97h-12.95c-.92,0-1.7-.32-2.34-.97-.65-.64-.97-1.43-.97-2.34V3.69c0-.91,.32-1.69,.97-2.33,.64-.65,1.43-.98,2.34-.98h16.27V2.49h-16.27c-.33,0-.61,.12-.85,.35-.24,.23-.35,.52-.35,.85v5.63c0,.33,.12,.61,.35,.85,.23,.24,.52,.35,.85,.35h12.95c.33,0,.61-.12,.85-.35,.24-.23,.35-.52,.35-.85V5.17h2.11Z"/>
            <path class="cls-1" d="M142.14,.4h2.11V12.64h-2.11V.4Z"/>
            <path class="cls-1" d="M165.27,5.39l8.32,5.14,.94,.5-.96,1.94-.95-.5-9.03-4.76-9.02,4.76-.94,.5m8.42-6.11l-8.46-4.44-.94-.49,.97-1.93,.94,.5,9.02,4.47L172.63,.5l.95-.5"/>
            <g>
                <rect class="cls-1" y="5.45" width="20.08" height="2.11"/>
                <rect class="cls-1" y="10.52" width="20.08" height="2.11"/>
                <rect class="cls-1" y=".37" width="20.08" height="2.11"/>
            </g>
            <g>
                <rect class="cls-1" x="57.38" y="5.45" width="20.08" height="2.11"/>
                <rect class="cls-1" x="57.38" y="10.52" width="20.08" height="2.11"/>
                <rect class="cls-1" x="57.38" y=".37" width="20.08" height="2.11"/>
            </g>
        </g>
    </g>
</svg>