<svg width="27" height="29" viewBox="0 0 27 29" fill="none" xmlns="http://www.w3.org/2000/svg">
<path d="M0 7.29624C0.0786394 7.09624 0.146045 6.80874 0.269621 6.55874C0.999843 5.07123 1.93228 3.74622 2.96583 2.50872C3.57247 1.78371 4.24652 1.10871 4.92058 0.458705C5.85301 -0.4288 6.78545 0.121203 7.25729 0.846207C8.47058 2.70872 9.61647 4.62123 10.4815 6.72124C10.6051 7.03374 10.7062 7.35874 10.7961 7.68375C10.9533 8.24625 10.8635 8.78375 10.504 9.20875C10.0883 9.69626 9.6277 10.1463 9.17834 10.5838C8.57169 11.1713 8.56046 11.1713 8.87501 11.9838C10.2344 15.5213 12.5261 17.9838 15.7391 19.3838C16.02 19.5088 16.1772 19.4838 16.3795 19.2088C16.7726 18.6588 17.1883 18.1463 17.6152 17.6338C18.1545 16.9838 18.8173 16.7838 19.5363 17.1588C20.4575 17.6338 21.3899 18.1213 22.2662 18.6963C23.3109 19.3838 24.2996 20.1713 25.3106 20.9213C25.7263 21.2338 25.9735 21.6838 26.097 22.2213C26.1644 22.5338 26.142 22.8338 25.9959 23.0963C25.8162 23.4213 25.6477 23.7588 25.423 24.0463C23.985 25.8838 22.2999 27.3589 20.4575 28.6589C19.8171 29.1089 19.1768 29.0339 18.5027 28.8839C16.1435 28.3714 14.0203 27.2589 12.0206 25.8213C7.8864 22.8338 4.56108 18.9963 2.1345 14.2088C1.22453 12.4213 0.528007 10.5338 0.179747 8.49625C0.112342 8.12125 0.0786394 7.74625 0.0112342 7.27124L0 7.29624Z" fill="white"/>
</svg>
